<svg xmlns="http://www.w3.org/2000/svg" fill="none" viewBox="0 0 64 64">
  <path fill="#A042FF" d="M45.7126 60.525c-6.1375 0-12.275-2.3375-16.95-7-5.7875-5.775-15.1875-5.775-20.96253 0-1.7875 1.7875-4.675 1.7875-6.4625 0-1.787497-1.7875-1.787497-4.675 0-6.4625 9.33753-9.3375 24.53753-9.3375 33.88753 0 5.7875 5.775 15.1875 5.775 20.9625 0 1.7875-1.7875 4.675-1.7875 6.4625 0 1.7875 1.7875 1.7875 4.675 0 6.4625-4.6625 4.6625-10.8 7-16.9375 7Zm0-18.2875c-6.1375 0-12.275-2.3375-16.95-7-5.7875-5.775-15.1875-5.775-20.96253 0-1.7875 1.7875-4.675 1.7875-6.4625 0-1.787497-1.7875-1.787497-4.675 0-6.4625 9.33753-9.3375 24.53753-9.3375 33.88753 0 5.7875 5.775 15.1875 5.775 20.9625 0 1.7875-1.7875 4.675-1.7875 6.4625 0 1.7875 1.7875 1.7875 4.675 0 6.4625-4.6625 4.6625-10.8 7-16.9375 7Zm0-18.2875c-6.1375 0-12.275-2.3375-16.95-7-5.7875-5.775-15.1875-5.775-20.96253 0-1.7875 1.7875-4.675 1.7875-6.4625 0-1.787497-1.7875-1.787497-4.675 0-6.4625 9.33753-9.3375 24.53753-9.3375 33.88753 0 5.7875 5.775 15.1875 5.775 20.9625 0 1.7875-1.7875 4.675-1.7875 6.4625 0 1.7875 1.7875 1.7875 4.675 0 6.4625-4.6625 4.6625-10.8 7-16.9375 7Z"/>
</svg>
